<?xml version="1.0" encoding="UTF-8" standalone="no"?>
<!-- Generated by graphviz version 2.38.0 (20140413.2041)
 -->

<!-- Title: G Pages: 1 -->

<svg
   xmlns:dc="http://purl.org/dc/elements/1.1/"
   xmlns:cc="http://creativecommons.org/ns#"
   xmlns:rdf="http://www.w3.org/1999/02/22-rdf-syntax-ns#"
   xmlns:svg="http://www.w3.org/2000/svg"
   xmlns="http://www.w3.org/2000/svg"
   xmlns:sodipodi="http://sodipodi.sourceforge.net/DTD/sodipodi-0.dtd"
   xmlns:inkscape="http://www.inkscape.org/namespaces/inkscape"
   width="1194pt"
   height="1066pt"
   viewBox="0.00 0.00 1194.00 1066.00"
   version="1.1"
   id="svg4959"
   sodipodi:docname="class_edited.svg"
   inkscape:version="0.92.2 (5c3e80d, 2017-08-06)">
  <metadata
     id="metadata4965">
    <rdf:RDF>
      <cc:Work
         rdf:about="">
        <dc:format>image/svg+xml</dc:format>
        <dc:type
           rdf:resource="http://purl.org/dc/dcmitype/StillImage" />
        <dc:title></dc:title>
      </cc:Work>
    </rdf:RDF>
  </metadata>
  <defs
     id="defs4963" />
  <sodipodi:namedview
     pagecolor="#ffffff"
     bordercolor="#666666"
     borderopacity="1"
     objecttolerance="10"
     gridtolerance="10"
     guidetolerance="10"
     inkscape:pageopacity="0"
     inkscape:pageshadow="2"
     inkscape:window-width="1585"
     inkscape:window-height="897"
     id="namedview4961"
     showgrid="false"
     inkscape:zoom="0.56988743"
     inkscape:cx="796"
     inkscape:cy="766.37853"
     inkscape:window-x="75"
     inkscape:window-y="19"
     inkscape:window-maximized="0"
     inkscape:current-layer="graph0" />
  <g
     id="graph0"
     class="graph"
     transform="scale(1 1) rotate(0) translate(4 1062)">
    <title
       id="title4663">G</title>
    <!-- WebDriver -->
    <!-- SearchContext -->
    <!-- WebDriver&#45;&gt;SearchContext -->
    <!-- WebElement -->
    <!-- WebElement&#45;&gt;SearchContext -->
    <!-- Actions -->
    <!-- ByClassName -->
    <!-- ByCssSelector -->
    <!-- ByClassName&#45;&gt;ByCssSelector -->
    <!-- ById -->
    <!-- ByCssSelector&#45;&gt;ById -->
    <!-- ByLinkText -->
    <!-- ById&#45;&gt;ByLinkText -->
    <!-- ByName -->
    <!-- ByLinkText&#45;&gt;ByName -->
    <!-- ByPartialLinkText -->
    <!-- ByName&#45;&gt;ByPartialLinkText -->
    <!-- ByTagName -->
    <!-- ByPartialLinkText&#45;&gt;ByTagName -->
    <!-- ByXPath -->
    <!-- ByTagName&#45;&gt;ByXPath -->
    <!-- ExpectedConditions -->
    <g
       id="g5237"
       transform="translate(-264.52592,-53.958024)">
      <g
         class="cluster"
         id="clust1">
        <title
           id="title4667">cluster_0</title>
      </g>
      <g
         transform="translate(273.73827,-50.009876)"
         id="g5055">
        <g
           id="node1"
           class="node">
          <title
             id="title4677">WebDriver</title>
          <path
             style="fill:none;stroke:#000000"
             inkscape:connector-curvature="0"
             d="m 238,-644 c 0,0 200,0 200,0 6,0 12,-6 12,-12 0,0 0,-172 0,-172 0,-6 -6,-12 -12,-12 0,0 -200,0 -200,0 -6,0 -12,6 -12,12 0,0 0,172 0,172 0,6 6,12 12,12"
             id="path4679" />
          <text
             style="font-size:14px;font-family:Verdana;text-anchor:middle"
             x="338"
             y="-824.79999"
             font-size="14.00"
             id="text4681">WebDriver</text>
          <polyline
             style="fill:none;stroke:#000000"
             points="226,-817 450,-817 "
             id="polyline4683" />
          <text
             style="font-size:14px;font-family:Verdana;text-anchor:start"
             x="234"
             y="-801.79999"
             font-size="14.00"
             id="text4685">+ close: void</text>
          <text
             style="font-size:14px;font-family:Verdana;text-anchor:start"
             x="234"
             y="-786.79999"
             font-size="14.00"
             id="text4687">+ get: void</text>
          <text
             style="font-size:14px;font-family:Verdana;text-anchor:start"
             x="234"
             y="-771.79999"
             font-size="14.00"
             id="text4689">+ getCurrentUrl: String</text>
          <text
             style="font-size:14px;font-family:Verdana;text-anchor:start"
             x="234"
             y="-756.79999"
             font-size="14.00"
             id="text4691">+ getPageSource: String</text>
          <text
             style="font-size:14px;font-family:Verdana;text-anchor:start"
             x="234"
             y="-741.79999"
             font-size="14.00"
             id="text4693">+ getTitle: String</text>
          <text
             style="font-size:14px;font-family:Verdana;text-anchor:start"
             x="234"
             y="-726.79999"
             font-size="14.00"
             id="text4695">+ getWindowHandle : String</text>
          <text
             style="font-size:14px;font-family:Verdana;text-anchor:start"
             x="234"
             y="-711.79999"
             font-size="14.00"
             id="text4697">+ getWindowHandles : Set</text>
          <text
             style="font-size:14px;font-family:Verdana;text-anchor:start"
             x="234"
             y="-696.79999"
             font-size="14.00"
             id="text4699">+ manage: Options</text>
          <text
             style="font-size:14px;font-family:Verdana;text-anchor:start"
             x="234"
             y="-681.79999"
             font-size="14.00"
             id="text4701">+ navigate: Navigation</text>
          <text
             style="font-size:14px;font-family:Verdana;text-anchor:start"
             x="234"
             y="-666.79999"
             font-size="14.00"
             id="text4703">+ quit: void</text>
          <text
             style="font-size:14px;font-family:Verdana;text-anchor:start"
             x="234"
             y="-651.79999"
             font-size="14.00"
             id="text4705">+ switchTo: TargetLocator</text>
        </g>
        <g
           id="node3"
           class="node">
          <title
             id="title4708">SearchContext</title>
          <polygon
             style="fill:none;stroke:#000000"
             points="120,-346.5 120,-407.5 346,-407.5 346,-346.5 "
             id="polygon4710" />
          <text
             style="font-size:14px;font-family:Verdana;text-anchor:middle"
             x="233"
             y="-392.29999"
             font-size="14.00"
             id="text4712">SearchContext</text>
          <polyline
             style="fill:none;stroke:#000000"
             points="120,-384.5 346,-384.5 "
             id="polyline4714" />
          <text
             style="font-size:14px;font-family:Verdana;text-anchor:start"
             x="128"
             y="-369.29999"
             font-size="14.00"
             id="text4716">+ findElement : WebElement</text>
          <text
             style="font-size:14px;font-family:Verdana;text-anchor:start"
             x="128"
             y="-354.29999"
             font-size="14.00"
             id="text4718">+ findElements : List</text>
        </g>
        <g
           id="edge1"
           class="edge">
          <title
             id="title4721">WebDriver-&gt;SearchContext</title>
          <path
             style="fill:none;stroke:#000000"
             inkscape:connector-curvature="0"
             d="m 309.862,-643.723 c -21.458,74.183 -49.892,172.485 -65.463,226.316"
             id="path4723" />
          <polygon
             style="fill:none;stroke:#000000"
             points="241.554,-407.571 240.97,-418.15 247.695,-416.205 "
             id="polygon4725" />
        </g>
        <g
           id="node2"
           class="node">
          <title
             id="title4728">WebElement</title>
          <path
             style="fill:none;stroke:#000000"
             inkscape:connector-curvature="0"
             d="m 28.5,-621.5 c 0,0 167,0 167,0 6,0 12,-6 12,-12 0,0 0,-217 0,-217 0,-6 -6,-12 -12,-12 0,0 -167,0 -167,0 -6,0 -12,6 -12,12 0,0 0,217 0,217 0,6 6,12 12,12"
             id="path4730" />
          <text
             style="font-size:14px;font-family:Verdana;text-anchor:middle"
             x="112"
             y="-847.29999"
             font-size="14.00"
             id="text4732">WebElement</text>
          <polyline
             style="fill:none;stroke:#000000"
             points="16.5,-839.5 207.5,-839.5 "
             id="polyline4734" />
          <text
             style="font-size:14px;font-family:Verdana;text-anchor:start"
             x="24.5"
             y="-824.29999"
             font-size="14.00"
             id="text4736">+ clear : void</text>
          <text
             style="font-size:14px;font-family:Verdana;text-anchor:start"
             x="24.5"
             y="-809.29999"
             font-size="14.00"
             id="text4738">+ click : void</text>
          <text
             style="font-size:14px;font-family:Verdana;text-anchor:start"
             x="24.5"
             y="-794.29999"
             font-size="14.00"
             id="text4740">+ getAttribute : String</text>
          <text
             style="font-size:14px;font-family:Verdana;text-anchor:start"
             x="24.5"
             y="-779.29999"
             font-size="14.00"
             id="text4742">+ getCssValue : String</text>
          <text
             style="font-size:14px;font-family:Verdana;text-anchor:start"
             x="24.5"
             y="-764.29999"
             font-size="14.00"
             id="text4744">+ getLocation : Point</text>
          <text
             style="font-size:14px;font-family:Verdana;text-anchor:start"
             x="24.5"
             y="-749.29999"
             font-size="14.00"
             id="text4746">+ getRect : Rectangle</text>
          <text
             style="font-size:14px;font-family:Verdana;text-anchor:start"
             x="24.5"
             y="-734.29999"
             font-size="14.00"
             id="text4748">+ getSize : Dimension</text>
          <text
             style="font-size:14px;font-family:Verdana;text-anchor:start"
             x="24.5"
             y="-719.29999"
             font-size="14.00"
             id="text4750">+ getTagName : String</text>
          <text
             style="font-size:14px;font-family:Verdana;text-anchor:start"
             x="24.5"
             y="-704.29999"
             font-size="14.00"
             id="text4752">+ getText : String</text>
          <text
             style="font-size:14px;font-family:Verdana;text-anchor:start"
             x="24.5"
             y="-689.29999"
             font-size="14.00"
             id="text4754">+ isDisplayed : boolean</text>
          <text
             style="font-size:14px;font-family:Verdana;text-anchor:start"
             x="24.5"
             y="-674.29999"
             font-size="14.00"
             id="text4756">+ isEnabled : boolean</text>
          <text
             style="font-size:14px;font-family:Verdana;text-anchor:start"
             x="24.5"
             y="-659.29999"
             font-size="14.00"
             id="text4758">+ isSelected : boolean</text>
          <text
             style="font-size:14px;font-family:Verdana;text-anchor:start"
             x="24.5"
             y="-644.29999"
             font-size="14.00"
             id="text4760">+ sendKeys : void</text>
          <text
             style="font-size:14px;font-family:Verdana;text-anchor:start"
             x="24.5"
             y="-629.29999"
             font-size="14.00"
             id="text4762">+ submit : void</text>
        </g>
        <g
           id="edge2"
           class="edge">
          <title
             id="title4765">WebElement-&gt;SearchContext</title>
          <path
             style="fill:none;stroke:#000000"
             inkscape:connector-curvature="0"
             d="m 151.871,-621.386 c 23.578,70.734 51.905,155.714 68.083,204.249"
             id="path4767" />
          <polygon
             style="fill:none;stroke:#000000"
             points="223.12,-407.641 216.637,-416.021 223.278,-418.235 "
             id="polygon4769" />
        </g>
      </g>
      <g
         transform="translate(-1.3160494,85.543209)"
         id="g5078">
        <g
           id="node4"
           class="node"
           transform="translate(56.590123,410.6074)">
          <title
             id="title4772">Actions</title>
          <path
             d="m 480,-606.5 c 0,0 194,0 194,0 6,0 12,-6 12,-12 0,0 0,-247 0,-247 0,-6 -6,-12 -12,-12 0,0 -194,0 -194,0 -6,0 -12,6 -12,12 0,0 0,247 0,247 0,6 6,12 12,12"
             id="path4774"
             inkscape:connector-curvature="0"
             style="fill:none;stroke:#000000" />
          <text
             x="577"
             y="-862.29999"
             font-size="14.00"
             id="text4776"
             style="font-size:14px;font-family:Verdana;text-anchor:middle">Actions</text>
          <polyline
             points="468,-854.5 686,-854.5 "
             id="polyline4778"
             style="fill:none;stroke:#000000" />
          <text
             x="476"
             y="-839.29999"
             font-size="14.00"
             id="text4780"
             style="font-size:14px;font-family:Verdana;text-anchor:start">+ build : Action</text>
          <text
             x="476"
             y="-824.29999"
             font-size="14.00"
             id="text4782"
             style="font-size:14px;font-family:Verdana;text-anchor:start">+ click : Actions</text>
          <text
             x="476"
             y="-809.29999"
             font-size="14.00"
             id="text4784"
             style="font-size:14px;font-family:Verdana;text-anchor:start">+ click : Actions</text>
          <text
             x="476"
             y="-794.29999"
             font-size="14.00"
             id="text4786"
             style="font-size:14px;font-family:Verdana;text-anchor:start">+ clickAndHold : Actions</text>
          <text
             x="476"
             y="-779.29999"
             font-size="14.00"
             id="text4788"
             style="font-size:14px;font-family:Verdana;text-anchor:start">+ contextClick : Actions</text>
          <text
             x="476"
             y="-764.29999"
             font-size="14.00"
             id="text4790"
             style="font-size:14px;font-family:Verdana;text-anchor:start">+ doubleClick : Actions</text>
          <text
             x="476"
             y="-749.29999"
             font-size="14.00"
             id="text4792"
             style="font-size:14px;font-family:Verdana;text-anchor:start">+ dragAndDrop : Actions</text>
          <text
             x="476"
             y="-734.29999"
             font-size="14.00"
             id="text4794"
             style="font-size:14px;font-family:Verdana;text-anchor:start">+ keyDown : Actions</text>
          <text
             x="476"
             y="-719.29999"
             font-size="14.00"
             id="text4796"
             style="font-size:14px;font-family:Verdana;text-anchor:start">+ keyUp : Actions</text>
          <text
             x="476"
             y="-704.29999"
             font-size="14.00"
             id="text4798"
             style="font-size:14px;font-family:Verdana;text-anchor:start">+ moveByOffset : Actions</text>
          <text
             x="476"
             y="-689.29999"
             font-size="14.00"
             id="text4800"
             style="font-size:14px;font-family:Verdana;text-anchor:start">+ moveToElement : Actions</text>
          <text
             x="476"
             y="-674.29999"
             font-size="14.00"
             id="text4802"
             style="font-size:14px;font-family:Verdana;text-anchor:start">+ pause : Actions</text>
          <text
             x="476"
             y="-659.29999"
             font-size="14.00"
             id="text4804"
             style="font-size:14px;font-family:Verdana;text-anchor:start">+ perform : void</text>
          <text
             x="476"
             y="-644.29999"
             font-size="14.00"
             id="text4806"
             style="font-size:14px;font-family:Verdana;text-anchor:start">+ release : Actions</text>
          <text
             x="476"
             y="-629.29999"
             font-size="14.00"
             id="text4808"
             style="font-size:14px;font-family:Verdana;text-anchor:start">+ sendKeys : Actions</text>
          <text
             x="476"
             y="-614.29999"
             font-size="14.00"
             id="text4810"
             style="font-size:14px;font-family:Verdana;text-anchor:start">+ tick : Actions</text>
        </g>
      </g>
      <g
         transform="translate(98.703702,-94.755554)"
         id="g5003">
        <g
           id="clust3"
           class="cluster">
          <title
             id="title4670">cluster_1</title>
          <polygon
             style="fill:none;stroke:#000000"
             points="850,-8 694,-8 694,-791.5 850,-791.5 "
             id="polygon4672" />
          <text
             style="font-size:14px;font-family:Verdana;text-anchor:middle"
             x="772"
             y="-776.29999"
             font-size="14.00"
             id="text4674">By</text>
        </g>
        <g
           id="node5"
           class="node">
          <title
             id="title4813">ByClassName</title>
          <path
             style="fill:none;stroke:#000000"
             inkscape:connector-curvature="0"
             d="m 727.5,-724 c 0,0 89,0 89,0 6,0 12,-6 12,-12 0,0 0,-12 0,-12 0,-6 -6,-12 -12,-12 0,0 -89,0 -89,0 -6,0 -12,6 -12,12 0,0 0,12 0,12 0,6 6,12 12,12"
             id="path4815" />
          <text
             style="font-size:14px;font-family:Verdana;text-anchor:middle"
             x="772"
             y="-738.29999"
             font-size="14.00"
             id="text4817">ByClassName</text>
        </g>
        <g
           id="node6"
           class="node">
          <title
             id="title4820">ByCssSelector</title>
          <path
             style="fill:none;stroke:#000000"
             inkscape:connector-curvature="0"
             d="m 725,-359 c 0,0 94,0 94,0 6,0 12,-6 12,-12 0,0 0,-12 0,-12 0,-6 -6,-12 -12,-12 0,0 -94,0 -94,0 -6,0 -12,6 -12,12 0,0 0,12 0,12 0,6 6,12 12,12"
             id="path4822" />
          <text
             style="font-size:14px;font-family:Verdana;text-anchor:middle"
             x="772"
             y="-373.29999"
             font-size="14.00"
             id="text4824">ByCssSelector</text>
        </g>
        <g
           id="node7"
           class="node">
          <title
             id="title4827">ById</title>
          <path
             style="fill:none;stroke:#000000"
             inkscape:connector-curvature="0"
             d="m 757,-291.5 c 0,0 30,0 30,0 6,0 12,-6 12,-12 0,0 0,-12 0,-12 0,-6 -6,-12 -12,-12 0,0 -30,0 -30,0 -6,0 -12,6 -12,12 0,0 0,12 0,12 0,6 6,12 12,12"
             id="path4829" />
          <text
             style="font-size:14px;font-family:Verdana;text-anchor:middle"
             x="772"
             y="-305.79999"
             font-size="14.00"
             id="text4831">ById</text>
        </g>
        <g
           id="node8"
           class="node">
          <title
             id="title4834">ByLinkText</title>
          <path
             style="fill:none;stroke:#000000"
             inkscape:connector-curvature="0"
             d="m 736.5,-236.5 c 0,0 71,0 71,0 6,0 12,-6 12,-12 0,0 0,-12 0,-12 0,-6 -6,-12 -12,-12 0,0 -71,0 -71,0 -6,0 -12,6 -12,12 0,0 0,12 0,12 0,6 6,12 12,12"
             id="path4836" />
          <text
             style="font-size:14px;font-family:Verdana;text-anchor:middle"
             x="772"
             y="-250.8"
             font-size="14.00"
             id="text4838">ByLinkText</text>
        </g>
        <g
           id="node9"
           class="node">
          <title
             id="title4841">ByName</title>
          <path
             style="fill:none;stroke:#000000"
             inkscape:connector-curvature="0"
             d="m 746.5,-181.5 c 0,0 51,0 51,0 6,0 12,-6 12,-12 0,0 0,-12 0,-12 0,-6 -6,-12 -12,-12 0,0 -51,0 -51,0 -6,0 -12,6 -12,12 0,0 0,12 0,12 0,6 6,12 12,12"
             id="path4843" />
          <text
             style="font-size:14px;font-family:Verdana;text-anchor:middle"
             x="772"
             y="-195.8"
             font-size="14.00"
             id="text4845">ByName</text>
        </g>
        <g
           id="node10"
           class="node">
          <title
             id="title4848">ByPartialLinkText</title>
          <path
             style="fill:none;stroke:#000000"
             inkscape:connector-curvature="0"
             d="m 714,-126.5 c 0,0 116,0 116,0 6,0 12,-6 12,-12 0,0 0,-12 0,-12 0,-6 -6,-12 -12,-12 0,0 -116,0 -116,0 -6,0 -12,6 -12,12 0,0 0,12 0,12 0,6 6,12 12,12"
             id="path4850" />
          <text
             style="font-size:14px;font-family:Verdana;text-anchor:middle"
             x="772"
             y="-140.8"
             font-size="14.00"
             id="text4852">ByPartialLinkText</text>
        </g>
        <g
           id="node11"
           class="node">
          <title
             id="title4855">ByTagName</title>
          <path
             style="fill:none;stroke:#000000"
             inkscape:connector-curvature="0"
             d="m 733.5,-71.5 c 0,0 77,0 77,0 6,0 12,-6 12,-12 0,0 0,-12 0,-12 0,-6 -6,-12 -12,-12 0,0 -77,0 -77,0 -6,0 -12,6 -12,12 0,0 0,12 0,12 0,6 6,12 12,12"
             id="path4857" />
          <text
             style="font-size:14px;font-family:Verdana;text-anchor:middle"
             x="772"
             y="-85.800003"
             font-size="14.00"
             id="text4859">ByTagName</text>
        </g>
        <g
           id="node12"
           class="node">
          <title
             id="title4862">ByXPath</title>
          <path
             style="fill:none;stroke:#000000"
             inkscape:connector-curvature="0"
             d="m 746.5,-16.5 c 0,0 51,0 51,0 6,0 12,-6 12,-12 0,0 0,-12 0,-12 0,-6 -6,-12 -12,-12 0,0 -51,0 -51,0 -6,0 -12,6 -12,12 0,0 0,12 0,12 0,6 6,12 12,12"
             id="path4864" />
          <text
             style="font-size:14px;font-family:Verdana;text-anchor:middle"
             x="772"
             y="-30.799999"
             font-size="14.00"
             id="text4866">ByXPath</text>
        </g>
      </g>
      <g
         transform="translate(139.50123,173.71852)"
         class="node"
         id="node13">
        <title
           id="title4869">ExpectedConditions</title>
        <path
           style="fill:none;stroke:#000000"
           inkscape:connector-curvature="0"
           id="path4871"
           d="m 870,-426.5 c 0,0 304,0 304,0 6,0 12,-6 12,-12 0,0 0,-607 0,-607 0,-6 -6,-12 -12,-12 0,0 -304,0 -304,0 -6,0 -12,6 -12,12 0,0 0,607 0,607 0,6 6,12 12,12" />
        <text
           style="font-size:14px;font-family:Verdana;text-anchor:middle"
           id="text4873"
           font-size="14.00"
           y="-1042.3"
           x="1022">ExpectedConditions</text>
        <polyline
           style="fill:none;stroke:#000000"
           id="polyline4875"
           points="858,-1034.5 1186,-1034.5 " />
        <text
           style="font-size:14px;font-family:Verdana;text-anchor:start"
           id="text4877"
           font-size="14.00"
           y="-1019.3"
           x="866">+ alertIsPresent : T</text>
        <text
           style="font-size:14px;font-family:Verdana;text-anchor:start"
           id="text4879"
           font-size="14.00"
           y="-1004.3"
           x="866">+ and : T</text>
        <text
           style="font-size:14px;font-family:Verdana;text-anchor:start"
           id="text4881"
           font-size="14.00"
           y="-989.29999"
           x="866">+ attributeContains</text>
        <text
           style="font-size:14px;font-family:Verdana;text-anchor:start"
           id="text4883"
           font-size="14.00"
           y="-974.29999"
           x="866">+ attributeToBe : T</text>
        <text
           style="font-size:14px;font-family:Verdana;text-anchor:start"
           id="text4885"
           font-size="14.00"
           y="-959.29999"
           x="866">+ attributeToBeNotEmpty : T</text>
        <text
           style="font-size:14px;font-family:Verdana;text-anchor:start"
           id="text4887"
           font-size="14.00"
           y="-944.29999"
           x="866">+ elementSelectionStateToBe : T</text>
        <text
           style="font-size:14px;font-family:Verdana;text-anchor:start"
           id="text4889"
           font-size="14.00"
           y="-929.29999"
           x="866">+ elementToBeClickable : T</text>
        <text
           style="font-size:14px;font-family:Verdana;text-anchor:start"
           id="text4891"
           font-size="14.00"
           y="-914.29999"
           x="866">+ elementToBeSelected : T</text>
        <text
           style="font-size:14px;font-family:Verdana;text-anchor:start"
           id="text4893"
           font-size="14.00"
           y="-899.29999"
           x="866">+frameToBeAvailableAndSwitchToIt : T</text>
        <text
           style="font-size:14px;font-family:Verdana;text-anchor:start"
           id="text4895"
           font-size="14.00"
           y="-884.29999"
           x="866">+ invisibilityOf : T</text>
        <text
           style="font-size:14px;font-family:Verdana;text-anchor:start"
           id="text4897"
           font-size="14.00"
           y="-869.29999"
           x="866">+ invisibilityOfAllElements : T</text>
        <text
           style="font-size:14px;font-family:Verdana;text-anchor:start"
           id="text4899"
           font-size="14.00"
           y="-854.29999"
           x="866">+ javaScriptThrowsNoExceptions : T</text>
        <text
           style="font-size:14px;font-family:Verdana;text-anchor:start"
           id="text4901"
           font-size="14.00"
           y="-839.29999"
           x="866">+ jsReturnsValue : T</text>
        <text
           style="font-size:14px;font-family:Verdana;text-anchor:start"
           id="text4903"
           font-size="14.00"
           y="-824.29999"
           x="866">+ not : T</text>
        <text
           style="font-size:14px;font-family:Verdana;text-anchor:start"
           id="text4905"
           font-size="14.00"
           y="-809.29999"
           x="866">+ numberOfElementsToBe : T</text>
        <text
           style="font-size:14px;font-family:Verdana;text-anchor:start"
           id="text4907"
           font-size="14.00"
           y="-794.29999"
           x="866">+ numberOfElementsToBeLessThan : T</text>
        <text
           style="font-size:14px;font-family:Verdana;text-anchor:start"
           id="text4909"
           font-size="14.00"
           y="-779.29999"
           x="866">+ numberOfElementsToBeMoreThan : T</text>
        <text
           style="font-size:14px;font-family:Verdana;text-anchor:start"
           id="text4911"
           font-size="14.00"
           y="-764.29999"
           x="866">+ numberOfWindowsToBe : T</text>
        <text
           style="font-size:14px;font-family:Verdana;text-anchor:start"
           id="text4913"
           font-size="14.00"
           y="-749.29999"
           x="866">+ or : T</text>
        <text
           style="font-size:14px;font-family:Verdana;text-anchor:start"
           id="text4915"
           font-size="14.00"
           y="-734.29999"
           x="866">+ presenceOfAllElementsLocatedBy : T</text>
        <text
           style="font-size:14px;font-family:Verdana;text-anchor:start"
           id="text4917"
           font-size="14.00"
           y="-719.29999"
           x="866">+ presenceOfElementLocated : T</text>
        <text
           style="font-size:14px;font-family:Verdana;text-anchor:start"
           id="text4919"
           font-size="14.00"
           y="-704.29999"
           x="866">+ presenceOfNestedElementLocatedBy : T</text>
        <text
           style="font-size:14px;font-family:Verdana;text-anchor:start"
           id="text4921"
           font-size="14.00"
           y="-689.29999"
           x="866">+ presenceOfNestedElementsLocatedBy : T</text>
        <text
           style="font-size:14px;font-family:Verdana;text-anchor:start"
           id="text4923"
           font-size="14.00"
           y="-674.29999"
           x="866">+ refreshed : T</text>
        <text
           style="font-size:14px;font-family:Verdana;text-anchor:start"
           id="text4925"
           font-size="14.00"
           y="-659.29999"
           x="866">+ stalenessOf : T</text>
        <text
           style="font-size:14px;font-family:Verdana;text-anchor:start"
           id="text4927"
           font-size="14.00"
           y="-644.29999"
           x="866">+ textMatches : T</text>
        <text
           style="font-size:14px;font-family:Verdana;text-anchor:start"
           id="text4929"
           font-size="14.00"
           y="-629.29999"
           x="866">+ textToBe : T</text>
        <text
           style="font-size:14px;font-family:Verdana;text-anchor:start"
           id="text4931"
           font-size="14.00"
           y="-614.29999"
           x="866">+ textToBePresentInElement : T</text>
        <text
           style="font-size:14px;font-family:Verdana;text-anchor:start"
           id="text4933"
           font-size="14.00"
           y="-599.29999"
           x="866">+ textToBePresentInElementLocated : T</text>
        <text
           style="font-size:14px;font-family:Verdana;text-anchor:start"
           id="text4935"
           font-size="14.00"
           y="-584.29999"
           x="866">+ textToBePresentInElementValue : T</text>
        <text
           style="font-size:14px;font-family:Verdana;text-anchor:start"
           id="text4937"
           font-size="14.00"
           y="-569.29999"
           x="866">+ titleContains : T</text>
        <text
           style="font-size:14px;font-family:Verdana;text-anchor:start"
           id="text4939"
           font-size="14.00"
           y="-554.29999"
           x="866">+ titleIs : T</text>
        <text
           style="font-size:14px;font-family:Verdana;text-anchor:start"
           id="text4941"
           font-size="14.00"
           y="-539.29999"
           x="866">+ urlContains : T</text>
        <text
           style="font-size:14px;font-family:Verdana;text-anchor:start"
           id="text4943"
           font-size="14.00"
           y="-524.29999"
           x="866">+ urlMatches : T</text>
        <text
           style="font-size:14px;font-family:Verdana;text-anchor:start"
           id="text4945"
           font-size="14.00"
           y="-509.29999"
           x="866">+ urlToBe : T</text>
        <text
           style="font-size:14px;font-family:Verdana;text-anchor:start"
           id="text4947"
           font-size="14.00"
           y="-494.29999"
           x="866">+ visibilityOf : T</text>
        <text
           style="font-size:14px;font-family:Verdana;text-anchor:start"
           id="text4949"
           font-size="14.00"
           y="-479.29999"
           x="866">+ visibilityOfAllElements : T</text>
        <text
           style="font-size:14px;font-family:Verdana;text-anchor:start"
           id="text4951"
           font-size="14.00"
           y="-464.29999"
           x="866">+ visibilityOfAllElementsLocatedBy : T</text>
        <text
           style="font-size:14px;font-family:Verdana;text-anchor:start"
           id="text4953"
           font-size="14.00"
           y="-449.29999"
           x="866">+ visibilityOfElementLocated : T</text>
        <text
           style="font-size:14px;font-family:Verdana;text-anchor:start"
           id="text4955"
           font-size="14.00"
           y="-434.29999"
           x="866">+ visibilityOfNestedElementsLocatedBy : T</text>
      </g>
    </g>
  </g>
</svg>
